<svg xmlns="http://www.w3.org/2000/svg" viewBox="0 0 50 50" width="50" height="50">
	<style>
		tspan { white-space:pre }
		.shp0 { fill: #04592a } 
	</style>
	<g id="Layer">
		<path id="Layer" fill-rule="evenodd" class="shp0" d="M25 0C36.31 0 45.51 9.2 45.51 20.51C45.51 29.62 39.5 37.62 30.82 40.18L26.31 49.19C26.06 49.69 25.55 50 25 50C24.44 50 23.94 49.69 23.69 49.19L19.18 40.18C10.5 37.62 4.49 29.62 4.49 20.51C4.49 9.2 13.69 0 25 0ZM26.47 29.54C26.47 28.73 25.81 28.08 25 28.08C24.19 28.08 23.54 28.73 23.54 29.54C23.54 30.35 24.19 31.01 25 31.01C25.81 31.01 26.47 30.35 26.47 29.54ZM28.75 24.86C29.08 24.13 28.76 23.26 28.02 22.92C27.07 22.49 26.05 22.27 25 22.27C23.96 22.27 22.9 22.5 21.95 22.93C21.22 23.27 20.9 24.14 21.24 24.88C21.48 25.41 22.01 25.73 22.57 25.73C22.77 25.73 22.98 25.69 23.18 25.59C23.75 25.33 24.38 25.2 25 25.2C25.63 25.2 26.23 25.33 26.81 25.59C27.54 25.92 28.41 25.6 28.75 24.86ZM32.21 18.56C30.06 17.15 27.57 16.41 25 16.41C22.44 16.41 19.95 17.15 17.8 18.55C17.13 19 16.94 19.9 17.38 20.58C17.82 21.26 18.73 21.45 19.41 21C21.07 19.91 23.01 19.34 25 19.34C27 19.34 28.93 19.92 30.6 21.01C30.85 21.17 31.13 21.25 31.4 21.25C31.88 21.25 32.35 21.02 32.63 20.59C33.07 19.91 32.89 19.01 32.21 18.56ZM36.58 16.56C37.07 15.91 36.93 14.99 36.29 14.51C33.05 12.08 29.04 10.74 25 10.74C20.96 10.74 16.95 12.08 13.71 14.51C13.06 14.99 12.93 15.91 13.42 16.56C13.71 16.94 14.15 17.14 14.59 17.14C14.9 17.14 15.21 17.05 15.47 16.85C18.2 14.8 21.59 13.67 25 13.67C28.41 13.67 31.8 14.8 34.53 16.85C35.18 17.34 36.09 17.21 36.58 16.56Z" />
	</g>
</svg>