<?xml version="1.0"?>
<svg xmlns="http://www.w3.org/2000/svg" height="512px" viewBox="-46 0 512 512" width="512px" class=""><g><path d="m210 0c-115.792969 0-210 94.207031-210 210 0 93.359375 61.519531 175.210938 150.441406 201.429688l46.140625 92.277343c2.539063 5.082031 7.734375 8.292969 13.417969 8.292969 5.679688 0 10.875-3.210938 13.414062-8.292969l46.140626-92.277343c88.925781-26.214844 150.445312-108.070313 150.445312-201.429688 0-115.792969-94.207031-210-210-210zm.003906 317.5c-8.265625 0-15-6.738281-15-15s6.734375-15 15-15c8.261719 0 15 6.738281 15 15s-6.738281 15-15 15zm38.355469-62.894531c-3.441406 7.535156-12.339844 10.855469-19.875 7.414062-5.84375-2.667969-12.0625-4.019531-18.484375-4.019531-6.386719 0-12.824219 1.410156-18.621094 4.085938-2.035156.9375-4.171875 1.378906-6.273437 1.378906-5.671875 0-11.101563-3.234375-13.628907-8.722656-3.46875-7.523438-.183593-16.433594 7.339844-19.902344 9.707032-4.476563 20.492188-6.839844 31.183594-6.839844 10.75 0 21.160156 2.265625 30.941406 6.726562 7.539063 3.445313 10.859375 12.339844 7.417969 19.878907zm39.777344-43.757813c-2.882813 4.386719-7.671875 6.769532-12.554688 6.769532-2.824219 0-5.679687-.796876-8.21875-2.464844-17.085937-11.222656-36.921875-17.152344-57.363281-17.152344-20.394531 0-40.195312 5.90625-57.257812 17.082031-6.933594 4.539063-16.230469 2.601563-20.769532-4.328125-4.539062-6.929687-2.597656-16.230468 4.332032-20.765625 21.964843-14.386719 47.445312-21.988281 73.695312-21.988281 26.3125 0 51.839844 7.632812 73.832031 22.074219 6.925781 4.550781 8.851563 13.851562 4.304688 20.773437zm40.4375-41.28125c-4.972657 6.621094-14.375 7.960938-21 2.988282-27.957031-20.992188-62.609375-32.554688-97.574219-32.554688-34.960938 0-69.613281 11.5625-97.574219 32.554688-2.699219 2.027343-5.859375 3.007812-8.996093 3.007812-4.558594 0-9.058594-2.070312-12.007813-5.996094-4.972656-6.625-3.636719-16.027344 2.988281-21 33.125-24.871094 74.175782-38.566406 115.589844-38.566406 41.417969 0 82.46875 13.695312 115.585938 38.5625 6.625 4.976562 7.964843 14.378906 2.988281 21.003906zm0 0" data-original="#000000" class="active-path" data-old_color="#4400FF" fill="#04592A"/></g> </svg>
